<svg width="26" height="26" viewBox="0 0 26 26" fill="none" xmlns="http://www.w3.org/2000/svg">
<path d="M22.8228 0.314819H4.07275C2.34932 0.314819 0.947754 1.71638 0.947754 3.43982V22.1898C0.947754 23.9133 2.34932 25.3148 4.07275 25.3148H22.8228C24.5462 25.3148 25.9478 23.9133 25.9478 22.1898V3.43982C25.9478 1.71638 24.5462 0.314819 22.8228 0.314819Z" fill="#1976D2"/>
<path d="M18.7188 10.8125H14.8125V7.6875C14.8125 6.825 15.5125 6.90625 16.375 6.90625H17.9375V3H14.8125C12.2234 3 10.125 5.09844 10.125 7.6875V10.8125H7V14.7188H10.125V23.3125H14.8125V14.7188H17.1562L18.7188 10.8125Z" fill="#FAFAFA"/>
</svg>
